{"title":"tvf.tripling.S01E02.x265.1080p.[GreatIndiaRipper]","uid":15803650,"size":104207089,"categoryP":"video","categoryS":"tv_shows","magnet":"?xt=urn:btih:8a4eaee7bbbd99d25ad9a715a2a2198692f31f87&amp;dn=tvf.tripling.S01E02.x265.1080p.%5BGreatIndiaRipper%5D&amp;tr=udp%3A%2F%2Ftracker.leechers-paradise.org%3A6969&amp;tr=udp%3A%2F%2Fzer0day.ch%3A1337&amp;tr=udp%3A%2F%2Fopen.demonii.com%3A1337&amp;tr=udp%3A%2F%2Ftracker.coppersurfer.tk%3A6969&amp;tr=udp%3A%2F%2Fexodus.desync.com%3A6969","seeders":0,"leechers":1,"uploader":"greatindiaripper","files":8,"time":1473543816,"description":"General\r\n\r\nFormat                      : Matroska\r\nFormat version              : Version 4 / Version 2\r\nFile size                   : 94.7 MiB\r\nDuration                    : 22 min\r\nOverall bit rate            : 583 kb/s\r\nMovie name                  : tvf.tripling.S01E02.x265[GreatIndiaRipper]\r\nEncoded date                : UTC 2016-09-10 19:35:40\r\nWriting application         : mkvmerge v9.3.1 ('Mask Machine') 64bit\r\nWriting library             : libebml v1.3.4 + libmatroska v1.4.5\r\n\r\nVideo\r\nID                          : 1\r\nFormat                      : HEVC\r\nFormat/Info                 : High Efficiency Video Coding\r\nFormat profile              :   @Main\r\nCodec ID                    : V_MPEGH/ISO/HEVC\r\nDuration                    : 22 min\r\nBit rate                    : 450 kb/s\r\nWidth                       : 1 920 pixels\r\nHeight                      : 1 042 pixels\r\nDisplay aspect ratio        : 1.85:1\r\nFrame rate mode             : Constant\r\nFrame rate                  : 23.976 (24000/1001) FPS\r\nColor space                 : YUV\r\nChroma subsampling          : 4:2:0\r\nBit depth                   : 8 bits\r\nBits/(Pixel*Frame)          : 0.009\r\nStream size                 : 73.1 MiB (77%)\r\nWriting library             : x265 1.9:[Windows][GCC 4.9.0][64 bit] 8bit\r\n\r\n\r\nAudio\r\nID                          : 2\r\nFormat                      : AAC\r\nFormat/Info                 : Advanced Audio Codec\r\nFormat profile              : LC\r\nCodec ID                    : A_AAC\r\nDuration                    : 22 min\r\nBit rate                    : 132 kb/s\r\nChannel(s)                  : 2 channels\r\nChannel positions           : Front: L R\r\nSampling rate               : 44.1 kHz\r\nFrame rate                  : 43.066 FPS (1024 spf)\r\nCompression mode            : Lossy\r\nStream size                 : 21.3 MiB (22%)\r\nDefault                     : Yes\r\nForced                      : No","torrent":{"xt":"urn:btih:8a4eaee7bbbd99d25ad9a715a2a2198692f31f87","amp;dn":"tvf.tripling.S01E02.x265.1080p.%5BGreatIndiaRipper%5D","amp;tr":["udp%3A%2F%2Ftracker.leechers-paradise.org%3A6969","udp%3A%2F%2Fzer0day.ch%3A1337","udp%3A%2F%2Fopen.demonii.com%3A1337","udp%3A%2F%2Ftracker.coppersurfer.tk%3A6969","udp%3A%2F%2Fexodus.desync.com%3A6969"],"infoHash":"8a4eaee7bbbd99d25ad9a715a2a2198692f31f87","infoHashBuffer":{"type":"Buffer","data":[138,78,174,231,187,189,153,210,90,217,167,21,162,162,25,134,146,243,31,135]},"announce":[],"urlList":[]}}